<svg version="1.1" viewBox="0.0 0.0 377.9527559055118 377.9527559055118" fill="none" stroke="none" stroke-linecap="square" stroke-miterlimit="10" xmlns:xlink="http://www.w3.org/1999/xlink" xmlns="http://www.w3.org/2000/svg"><clipPath id="p.0"><path d="m0 0l377.95276 0l0 377.95276l-377.95276 0l0 -377.95276z" clip-rule="nonzero"/></clipPath><g clip-path="url(#p.0)"><path fill="#000000" fill-opacity="0.0" d="m0 0l377.95276 0l0 377.95276l-377.95276 0z" fill-rule="evenodd"/><g filter="url(#shadowFilter-p.1)"><use xlink:href="#p.1" transform="matrix(1.0 0.0 0.0 1.0 9.192387938812336 9.192387938812336)"/></g><defs><filter id="shadowFilter-p.1" filterUnits="userSpaceOnUse"><feGaussianBlur in="SourceAlpha" stdDeviation="3.0" result="blur"/><feComponentTransfer in="blur" color-interpolation-filters="sRGB"><feFuncR type="linear" slope="0" intercept="0.0"/><feFuncG type="linear" slope="0" intercept="0.0"/><feFuncB type="linear" slope="0" intercept="0.0"/><feFuncA type="linear" slope="0.5" intercept="0"/></feComponentTransfer></filter></defs><g id="p.1"><path fill="#ffffff" d="m11.768859 229.17793l0 0c13.089583 -48.574966 61.351173 -77.8069 107.79527 -65.29135q42.04724 11.330719 84.0945 22.661423q-11.850403 43.97638 -23.70079 87.95276l0 0c-13.089584 48.57495 -61.351173 77.806885 -107.79528 65.29135l0 0c-46.444103 -12.515564 -73.483284 -62.039215 -60.3937 -110.61418z" fill-rule="evenodd"/><path stroke="#c9daf8" stroke-width="4.0" stroke-linejoin="round" stroke-linecap="butt" d="m11.768859 229.17793l0 0c13.089583 -48.574966 61.351173 -77.8069 107.79527 -65.29135q42.04724 11.330719 84.0945 22.661423q-11.850403 43.97638 -23.70079 87.95276l0 0c-13.089584 48.57495 -61.351173 77.806885 -107.79528 65.29135l0 0c-46.444103 -12.515564 -73.483284 -62.039215 -60.3937 -110.61418z" fill-rule="evenodd"/></g><g filter="url(#shadowFilter-p.2)"><use xlink:href="#p.2" transform="matrix(1.0 0.0 0.0 1.0 4.949747400959645 4.949747400959645)"/></g><defs><filter id="shadowFilter-p.2" filterUnits="userSpaceOnUse"><feGaussianBlur in="SourceAlpha" stdDeviation="3.0" result="blur"/><feComponentTransfer in="blur" color-interpolation-filters="sRGB"><feFuncR type="linear" slope="0" intercept="0.0"/><feFuncG type="linear" slope="0" intercept="0.0"/><feFuncB type="linear" slope="0" intercept="0.0"/><feFuncA type="linear" slope="0.5" intercept="0"/></feComponentTransfer></filter></defs><g id="p.2"><path fill="#000000" d="m28.928686 255.68892l11.984251 -44.37796l0 0c6.618721 -24.509262 41.470005 -36.438934 77.842514 -26.64566c36.37252 9.793259 60.492744 37.600967 53.874016 62.11023l-11.984253 44.377945z" fill-rule="evenodd"/><path stroke="#666666" stroke-width="4.0" stroke-linejoin="round" stroke-linecap="butt" d="m28.928686 255.68892l11.984251 -44.37796l0 0c6.618721 -24.509262 41.470005 -36.438934 77.842514 -26.64566c36.37252 9.793259 60.492744 37.600967 53.874016 62.11023l-11.984253 44.377945z" fill-rule="evenodd"/></g><g filter="url(#shadowFilter-p.3)"><use xlink:href="#p.3" transform="matrix(1.0 0.0 0.0 1.0 4.24264053785269 4.24264053785269)"/></g><defs><filter id="shadowFilter-p.3" filterUnits="userSpaceOnUse"><feGaussianBlur in="SourceAlpha" stdDeviation="3.0" result="blur"/><feComponentTransfer in="blur" color-interpolation-filters="sRGB"><feFuncR type="linear" slope="0" intercept="0.2901961"/><feFuncG type="linear" slope="0" intercept="0.5254902"/><feFuncB type="linear" slope="0" intercept="0.9098039"/><feFuncA type="linear" slope="0.5" intercept="0"/></feComponentTransfer></filter></defs><g id="p.3"><path fill="#4a86e8" d="m49.855133 225.36041l0 0c3.2963142 -12.219833 15.493912 -19.566605 27.244095 -16.40944c11.750183 3.1571503 18.603401 15.622665 15.307083 27.842514l-10.6377945 -2.858261c1.7119293 -6.3463287 -1.6629868 -12.770721 -7.5380783 -14.349289c-5.8750916 -1.5785828 -12.025585 2.286438 -13.737511 8.632751z" fill-rule="evenodd"/></g><g filter="url(#shadowFilter-p.4)"><use xlink:href="#p.4" transform="matrix(1.0 0.0 0.0 1.0 4.24264053785269 4.24264053785269)"/></g><defs><filter id="shadowFilter-p.4" filterUnits="userSpaceOnUse"><feGaussianBlur in="SourceAlpha" stdDeviation="3.0" result="blur"/><feComponentTransfer in="blur" color-interpolation-filters="sRGB"><feFuncR type="linear" slope="0" intercept="0.2901961"/><feFuncG type="linear" slope="0" intercept="0.5254902"/><feFuncB type="linear" slope="0" intercept="0.9098039"/><feFuncA type="linear" slope="0.5" intercept="0"/></feComponentTransfer></filter></defs><g id="p.4"><path fill="#4a86e8" d="m118.56171 235.50798l30.614182 8.18898l-2.173233 8.125977l-30.614174 -8.188965z" fill-rule="evenodd"/></g><g filter="url(#shadowFilter-p.5)"><use xlink:href="#p.5" transform="matrix(1.0 0.0 0.0 1.0 3.535533995140256 3.535533995140256)"/></g><defs><filter id="shadowFilter-p.5" filterUnits="userSpaceOnUse"><feGaussianBlur in="SourceAlpha" stdDeviation="3.0" result="blur"/><feComponentTransfer in="blur" color-interpolation-filters="sRGB"><feFuncR type="linear" slope="0" intercept="0.2901961"/><feFuncG type="linear" slope="0" intercept="0.5254902"/><feFuncB type="linear" slope="0" intercept="0.9098039"/><feFuncA type="linear" slope="0.5" intercept="0"/></feComponentTransfer></filter></defs><g id="p.5"><path fill="#4a86e8" d="m127.20173 305.39017l0 0c0 7.8624573 -10.449043 14.250336 -23.338585 14.2677c-12.889542 0.01739502 -23.338577 -6.3422546 -23.338577 -14.204712l7.118103 -0.009613037c0 3.931244 7.2621536 7.108307 16.220474 7.096222c8.958328 -0.012084961 16.220482 -3.2087708 16.220482 -7.139984z" fill-rule="evenodd"/></g><g filter="url(#shadowFilter-p.6)"><use xlink:href="#p.6" transform="matrix(1.0 0.0 0.0 1.0 9.192387938812317 9.192387938812336)"/></g><defs><filter id="shadowFilter-p.6" filterUnits="userSpaceOnUse"><feGaussianBlur in="SourceAlpha" stdDeviation="3.0" result="blur"/><feComponentTransfer in="blur" color-interpolation-filters="sRGB"><feFuncR type="linear" slope="0" intercept="0.0"/><feFuncG type="linear" slope="0" intercept="0.0"/><feFuncB type="linear" slope="0" intercept="0.0"/><feFuncA type="linear" slope="0.5" intercept="0"/></feComponentTransfer></filter></defs><g id="p.6"><path fill="#ffffff" d="m210.05464 182.28526l-3.723709 -29.00528l0 0c-40.693176 -22.329147 -53.127716 -65.29411 -28.726852 -99.259705c24.400848 -33.965588 77.651474 -47.81592 123.02208 -31.997694c45.370605 15.818228 68.01285 56.128212 52.309143 93.12602c-15.703674 36.997803 -64.61398 58.575226 -112.99486 49.849167z" fill-rule="evenodd"/><path stroke="#c9daf8" stroke-width="4.0" stroke-linejoin="round" stroke-linecap="butt" d="m210.05464 182.28526l-3.723709 -29.00528l0 0c-40.693176 -22.329147 -53.127716 -65.29411 -28.726852 -99.259705c24.400848 -33.965588 77.651474 -47.81592 123.02208 -31.997694c45.370605 15.818228 68.01285 56.128212 52.309143 93.12602c-15.703674 36.997803 -64.61398 58.575226 -112.99486 49.849167z" fill-rule="evenodd"/><path fill="#000000" d="m259.91437 72.687256q0 -0.828125 0.546875 -1.3438416q0.5625 -0.53134155 1.328125 -0.5314636q0.8125 -1.296997E-4 1.34375 0.53102875q0.53125 0.5155411 0.53125 1.3436661l0 33.734375q0 0.765625 -0.53125 1.3282089q-0.53125 0.54696655 -1.34375 0.54709625q-0.765625 1.2207031E-4 -1.328125 -0.5466614q-0.546875 -0.56240845 -0.546875 -1.3280334l0 -15.40625l-23.42186 0.003829956l0 15.40625q0 0.765625 -0.53125 1.3282089q-0.53125 0.54696655 -1.34375 0.54709625q-0.765625 1.2207031E-4 -1.328125 -0.54665375q-0.546875 -0.5624161 -0.546875 -1.3280411l0 -33.734375q0 -0.828125 0.546875 -1.3438416q0.5625 -0.53134155 1.328125 -0.5314636q0.8125 -1.296997E-4 1.34375 0.53102875q0.53125 0.5155411 0.53125 1.3436661l0 14.96875l23.42186 -0.003829956l0 -14.96875zm13.637085 11.216522q0 -0.8125 0.515625 -1.3282089q0.53125 -0.5313339 1.34375 -0.53147125q0.828125 -1.373291E-4 1.328125 0.5310364q0.5 0.5155411 0.5 1.3280411l0 22.515625q0 0.8125 -0.5 1.3438339q-0.5 0.5313339 -1.328125 0.5314636q-0.8125 1.373291E-4 -1.34375 -0.53102875q-0.515625 -0.5311661 -0.515625 -1.3436661l0 -22.515625zm1.859375 -12.094055q1.0625 -1.7547607E-4 1.828125 0.71845245q0.765625 0.7186279 0.765625 1.8748779q0 1.109375 -0.765625 1.8751221q-0.765625 0.7657471 -1.875 0.7659302q-1.09375 1.8310547E-4 -1.84375 -0.7653198q-0.75 -0.7655029 -0.75 -1.8748779q0 -1.15625 0.765625 -1.8751297q0.78125 -0.7188721 1.875 -0.7190552zm10.231415 0.87332916q0 -0.828125 0.53125 -1.3750839q0.53125 -0.54696655 1.34375 -0.54709625q0.8125 -1.373291E-4 1.34375 0.54665375q0.53125 0.5467911 0.53125 1.3749161l0 25.234375q0 0.78125 -0.578125 1.3282166q-0.578125 0.5469742 -1.296875 0.5470886q-0.765625 1.2207031E-4 -1.328125 -0.5466614q-0.546875 -0.54678345 -0.546875 -1.3280334l0 -25.234375zm1.875 29.999695q1.15625 -1.9073486E-4 1.96875 0.84342957q0.8125 0.8279877 0.8125 1.9842377q0 1.15625 -0.8125 1.9688873q-0.8125 0.8126297 -1.96875 0.81282043q-1.15625 1.9073486E-4 -1.96875 -0.78092957q-0.8125 -0.7967453 -0.8125 -1.9998703q0 -1.203125 0.8125 -2.0157547q0.8125 -0.8126297 1.96875 -0.81282043z" fill-rule="nonzero"/></g></g></svg>